<?xml version="1.0" encoding="UTF-8" standalone="no"?>
<svg id="svg94" width="1024" height="500" version="1.1" viewBox="0 0 1024 500" sodipodi:docname="featureGraphic.svg" inkscape:version="1.4 (e7c3feb100, 2024-10-09)" xml:space="preserve" inkscape:export-filename="featureGraphic.png" inkscape:export-xdpi="96" inkscape:export-ydpi="96" xmlns:inkscape="http://www.inkscape.org/namespaces/inkscape" xmlns:sodipodi="http://sodipodi.sourceforge.net/DTD/sodipodi-0.dtd" xmlns="http://www.w3.org/2000/svg" xmlns:svg="http://www.w3.org/2000/svg"><defs id="defs9"><linearGradient id="linearGradient1078" x1="19.17029" x2="19.17029" y1="43" y2="1.8314241" gradientTransform="matrix(0.26458333,0,0,0.26458333,7.1425064e-4,0)" gradientUnits="userSpaceOnUse"><stop stop-color="#16a085" offset="0" id="stop5" /><stop stop-color="#1cdc9a" offset="1" id="stop6" /></linearGradient><linearGradient id="linearGradient1087" x1="19.17029" x2="40.893143" y1="43" y2="-13.594682" gradientUnits="userSpaceOnUse" gradientTransform="scale(0.26458333)"><stop stop-color="#1abc9c" offset="0" id="stop7" /><stop stop-color="#eff0f1" offset="1" id="stop8" /></linearGradient><radialGradient id="radialGradient886" cx="19.472553" cy="10.657272" r="0.98144501" gradientTransform="matrix(0.7278512,0,0,0.72857555,-9.2763561,-5.0198627)" gradientUnits="userSpaceOnUse"><stop stop-color="#16a085" offset="0" id="stop9" /><stop stop-color="#16a085" stop-opacity="0" offset="1" id="stop10" /></radialGradient><linearGradient id="linearGradient1006" x1="4.8405175" x2="9.4169273" y1="5.9970527" y2="10.573462" gradientUnits="userSpaceOnUse" gradientTransform="matrix(1.0083275,0,0,1.0083275,-0.05282359,-0.01998773)"><stop offset="0" id="stop3" /><stop stop-color="#05221c" stop-opacity="0" offset="1" id="stop4" /></linearGradient></defs><sodipodi:namedview id="namedview9" pagecolor="#ffffff" bordercolor="#666666" borderopacity="1.0" inkscape:showpageshadow="2" inkscape:pageopacity="0.0" inkscape:pagecheckerboard="0" inkscape:deskcolor="#d1d1d1" showgrid="true" inkscape:zoom="0.5285828" inkscape:cx="565.66351" inkscape:cy="329.18211" inkscape:window-width="1600" inkscape:window-height="826" inkscape:window-x="0" inkscape:window-y="0" inkscape:window-maximized="1" inkscape:current-layer="layer1"><sodipodi:guide position="0,500" orientation="0,1024" id="guide9" inkscape:locked="false" /><sodipodi:guide position="1024,500" orientation="500,0" id="guide10" inkscape:locked="false" /><sodipodi:guide position="1024,0" orientation="0,-1024" id="guide11" inkscape:locked="false" /><sodipodi:guide position="0,0" orientation="-500,0" id="guide12" inkscape:locked="false" /><sodipodi:guide position="0,500" orientation="0,1024" id="guide14" inkscape:locked="false" /><sodipodi:guide position="1024,500" orientation="500,0" id="guide15" inkscape:locked="false" /><sodipodi:guide position="1024,0" orientation="0,-1024" id="guide16" inkscape:locked="false" /><sodipodi:guide position="0,0" orientation="-500,0" id="guide17" inkscape:locked="false" /><inkscape:grid id="grid1" units="px" originx="512" originy="400" spacingx="50" spacingy="50" empcolor="#3f52ff" empopacity="0.25098039" color="#3f3fff" opacity="0.1254902" empspacing="5" enabled="true" visible="true" /></sodipodi:namedview>
<g inkscape:groupmode="layer" id="layer1" inkscape:label="alligator"><g id="g1" style="display:inline"><rect id="rect34" width="1024" height="500" fill="#93cee9" inkscape:label="rect34" x="0" y="0" style="fill:#f5860e;fill-opacity:1" /><g id="g1780" transform="matrix(3.3,0,0,3.3,610,150)" fill="#ffffff" stroke-width="0.0795159"><path id="path1176" d="m 64.863,39.705 c -0.19859,-0.0098 -0.39042,0.05001 -0.54845,0.20805 l -3.4261,3.4261 c -0.31607,0.31607 -0.31607,0.8249 0,1.141 l 3.5396,5.56 c -0.28331,0.57157 -0.52863,1.1612 -0.7344,1.7651 l -6.4299,1.4278 c -0.44702,0 -0.80689,0.35986 -0.80689,0.80689 v 4.8413 c 0,0.44702 0.37053,0.70992 0.80689,0.80689 l 6.4331,1.431 c 0.19926,0.59792 0.4372,1.1823 0.71234,1.7493 l -3.5459,5.5726 c -0.24001,0.37712 -0.31607,0.8249 0,1.141 l 3.423,3.4261 c 0.31607,0.31607 0.8249,0.31607 1.141,0 l 5.5726,-3.5491 c 0.57645,0.28716 1.1714,0.53564 1.7808,0.74385 l 1.4278,6.4299 c 0,0.44702 0.35986,0.80689 0.80689,0.80689 h 4.8413 c 0.44702,0 0.70992,-0.37053 0.80689,-0.80689 l 1.431,-6.4331 c 0.60682,-0.20232 1.1996,-0.44446 1.7745,-0.72494 l 5.5474,3.5333 c 0.31607,0.31607 0.8249,0.31607 1.141,0 l 3.4261,-3.4261 c 0.31607,-0.31607 0.24001,-0.76386 0,-1.141 l -1.5129,-2.3765 -1.1284,0.45074 -3.6152,-5.4213 c -1.8219,4.0512 -5.849,6.6586 -10.291,6.6631 -6.2389,0 -11.296,-5.0576 -11.296,-11.296 0.005,-4.3585 2.5171,-8.3254 6.4551,-10.193 v -3.4734 c -0.54302,0.18585 -1.0745,0.40371 -1.5917,0.65244 l -5.5474,-3.5333 c -0.18859,-0.11997 -0.39396,-0.19853 -0.59255,-0.20805 z" style="stroke-width:0.0795159" /><path id="path1178" d="m 82.277,32.254 -8.0689,0.747 v 31.529 l 8.0689,-1.6138 v -12.91 l 9.6827,14.524 8.0689,-3.2276 -10.49,-13.578 10.496,-13.856 -8.4503,-1.6138 -9.3076,13.717 z" style="stroke-width:0.0795159" /></g></g><g id="g25" transform="matrix(31.973854,0,0,31.973854,325.5368,36.308989)" style="stroke-width:0.118207"><path d="m 5.8628581,2.5249071 -3.4687477,7.3126635 -1.0718363,0.9567034 c 0.2906153,0.398403 0.7597165,0.657584 1.2927686,0.657584 h 7.4700313 c 0.886793,0 1.600719,-0.713918 1.600719,-1.6007422 v -1.5032801 z" fill="url(#linearGradient1006)" opacity="0.1" style="fill:url(#linearGradient1006);stroke-width:0.013973;paint-order:fill markers stroke" id="path12" /><path d="m 1.0583333,9.7895832 v 0.2645838 c 0,0.879475 0.7080288,1.5875 1.5875,1.5875 h 1.2361002 l 0.2645834,-0.264584 h -1.5006836 c -0.8794712,0 -1.5875,-0.708025 -1.5875,-1.5874998 z" fill="#11806b" style="stroke-width:0.00827497;paint-order:fill markers stroke" id="path11" /><path d="m 5.6327309,5.8745767 c 0.9009248,0.6188184 1.6055605,1.4719234 2.0500041,2.4572143 l 0.8841838,-0.236678 c -0.7092426,-1.0178206 -1.7293471,-1.8039289 -2.9341879,-2.2205363 z" fill="#ffffff" style="stroke-width:0.00827497;paint-order:fill markers stroke" id="path13" /><path d="m 5.5872559,3.5672241 -0.2661338,0.9927042 c 1.3383144,0.048846 2.6239806,0.5426737 3.6452556,1.4154174 -0.8096755,-1.1970438 -2.0162665,-2.0412347 -3.3791218,-2.4081216 z" fill="#ffffff" style="stroke-width:0.00827497;paint-order:fill markers stroke" id="path14" /><path d="m 8.1501209,8.9098886 -0.2067403,0.1193977 c -0.3935631,-1.2800701 -1.2033185,-2.3941164 -2.3106497,-3.1547096 1.4216154,0.544469 2.3005459,2.4482161 2.51739,3.0353119 z" fill="#eff0f1" style="stroke-width:0.118207;paint-order:fill markers stroke" id="path15" /><path d="m 4.8477662,2.2598103 c -0.2028272,-0.012378 -0.3922766,0.1182256 -0.4470014,0.322461 l -0.082682,0.3085082 c -0.036946,0.1378874 -0.00268,0.2768097 0.078548,0.3808553 l -0.00156,0.00103 c 0.078521,0.1031896 0.1112388,0.2391481 0.075448,0.3746539 -1.339e-4,5.027e-4 1.36e-4,0.00103 0,0.00156 l -0.016536,0.060978 -0.00465,0.017052 -0.2971395,1.1089761 -0.00878,0.032556 -0.068729,0.2563151 c -0.2384748,0.5369996 -0.5252011,0.7512164 -1.0314514,0.6960738 -0.6575638,0 -1.1906249,0.533061 -1.1906249,1.1906249 2.89e-5,0.1088417 0.014982,0.2171653 0.044442,0.3219442 0.0718,0.3319958 -0.00977,0.688322 -0.2516642,0.9570474 l -0.5865275,0.5865276 v 0.9126058 c 0,0.1070711 0.010986,0.2116214 0.031006,0.3126424 0.013058,0.06589 0.030781,0.1296 0.051676,0.192236 0.00512,0.01536 0.010963,0.03033 0.016536,0.04548 0.018934,0.05144 0.040657,0.101626 0.064596,0.150379 0.00462,0.0094 0.00863,0.01911 0.013436,0.02842 0.030894,0.05988 0.064847,0.117503 0.1028361,0.172599 9.842e-4,0.0014 0.00211,0.0027 0.0031,0.0041 0.035348,0.05091 0.074309,0.09891 0.1152385,0.145211 0.00955,0.0108 0.019099,0.02151 0.028939,0.03204 0.04086,0.04376 0.083631,0.08565 0.1291911,0.12454 0.00344,0.0029 0.00687,0.0059 0.010335,0.0088 0.051074,0.04285 0.1049396,0.08212 0.1612305,0.118339 0.00698,0.0045 0.014134,0.0085 0.021187,0.01292 0.048774,0.03031 0.099263,0.05771 0.151412,0.08268 0.011431,0.0055 0.022525,0.01133 0.034106,0.01654 0.060806,0.02735 0.1234666,0.05168 0.1881022,0.07131 0.1469452,0.04464 0.3026557,0.06925 0.4645712,0.06925 h 1.5006836 l 0.2263428,-0.226343 c 1.1348472,-1.134846 3.963784,-1.687539 6.0141037,-2.5187085 0.388112,-0.1039942 0.616624,-0.5002061 0.51263,-0.8883179 -0.02275,-0.0849 -0.05197,-0.1340953 -0.08837,-0.160197 l 0.02015,-0.095085 -0.699182,0.1875856 h -0.0016 l -6.0812824,1.6293579 0.088883,-0.3312459 0.2692342,-1.0045898 0.8965861,-3.3450154 0.4258138,-1.5895672 0.1369425,-0.5110799 -0.5110797,-0.1369425 c -0.00175,-4.657e-4 -0.00343,-5.847e-4 -0.00517,-0.00103 l -0.4159951,-0.1116211 -0.019121,-0.00517 -5.292e-4,0.00207 c -0.022617,-0.00503 -0.045228,-0.01 -0.067696,-0.011369 z" fill="url(#linearGradient1078)" style="fill:url(#linearGradient1078);stroke-width:0.00827497;paint-order:fill markers stroke" id="path16" /><circle cx="3.0427084" cy="7.0114589" r="0.92604166" fill="#ffffff" style="stroke-width:0.118207;paint-order:fill markers stroke" id="circle16" /><ellipse cx="3.3072915" cy="6.7468753" rx="0.39687476" ry="0.39687458" fill="#2c3e50" style="stroke-width:0.118207;paint-order:fill markers stroke" id="ellipse16" /><path d="m 5.6110269,2.4551473 -2.3461099,7.3111814 h 5.292e-4 c -0.023056,0.08611 -0.00108,0.1780395 0.058394,0.2444293 0.066491,0.07407 0.1689918,0.10444 0.2651001,0.07855 v 10e-4 l 7.3106527,-2.3466248 -0.06821,-0.2552816 -6.782015,1.8169435 1.81746,-6.7814983 z" fill="url(#linearGradient1087)" style="fill:url(#linearGradient1087);stroke-width:0.00827497;paint-order:fill markers stroke" id="path17" /><path d="m 4.0493653,9.305374 4.5882784,-4.5882787" fill="#ffffff" opacity="0.878" style="stroke-width:0.118207;paint-order:fill markers stroke" id="path18" /><path d="m 5.8668253,2.5238769 -1.1581887,6.1222256 6.1227434,-1.1576709 -6.7820147,1.8169435 z" fill="#d35400" style="stroke-width:0.118207;paint-order:fill markers stroke" id="path19" /><path d="m 8.4532308,7.9380166 -0.8800497,0.1663981 c 0.03786,0.075227 0.075384,0.1504712 0.1100706,0.2273763 l 0.8836671,-0.236678 c -0.036979,-0.053067 -0.075035,-0.1053124 -0.113688,-0.1570964 z" fill="#bdc3c7" style="stroke-width:0.00827497;paint-order:fill markers stroke" id="path20" /><path d="m 5.3829431,4.3293302 -0.061821,0.2305981 c 1.3383144,0.048846 2.6239806,0.5426737 3.6452556,1.4154174 -0.8938578,-1.2322561 -2.9602202,-1.5885118 -3.5834346,-1.6460155 z" fill="#eff0f1" style="stroke-width:0.00827497;paint-order:fill markers stroke" id="path21" /><path d="m 5.5872559,3.5672241 -0.2661338,0.9927042 c 0.053092,0.00193 0.1062527,0.00337 0.1591636,0.00672 l 0.1850014,-0.9782347 c -0.025895,-0.00735 -0.052022,-0.014184 -0.078031,-0.021188 z" fill="#bdc3c7" style="stroke-width:0.00827497;paint-order:fill markers stroke" id="path22" /><path d="m 4.7818788,2.3859013 a 0.27904934,0.26458349 0 0 0 -0.2790526,0.2645832 0.27904934,0.26458349 0 0 0 0.2077392,0.2552817 0.27904934,0.26458349 0 0 1 -0.038758,-0.1333252 0.27904934,0.26458349 0 0 1 0.2790529,-0.2645833 0.27904934,0.26458349 0 0 1 0.071313,0.0093 0.27904934,0.26458349 0 0 0 -0.2402954,-0.131258 z" fill="url(#radialGradient886)" style="fill:url(#radialGradient886);stroke-width:0.118207;paint-order:fill markers stroke" id="path23" /></g></g><g inkscape:groupmode="layer" id="layer2" inkscape:label="Abdeckung" style="display:none" transform="translate(0,0.87382507)"><rect style="fill:#000000;fill-rule:evenodd" id="rect2" width="924" height="74.345001" x="50" y="-25" /><rect style="fill:#000000;fill-rule:evenodd" id="rect3" width="1030.9391" height="150" x="-38" y="450" /><rect style="fill:#000000;fill-rule:evenodd" id="rect4" width="88" height="758.87384" x="974" y="-58.873825" /><rect style="fill:#000000;fill-rule:evenodd" id="rect5" width="75.564445" height="720.14087" x="-25.564447" y="-58.873825" /><circle style="opacity:0.45;fill:#000000;stroke-width:0.377953;paint-order:fill markers stroke" id="path5-7" cx="772.54401" cy="121.55956" r="41.5" /><circle style="opacity:0.45;fill:#000000;stroke-width:0.377953;paint-order:fill markers stroke" id="path5" cx="124.5" cy="121.82473" r="41.5" /><circle style="opacity:0.45;fill:#000000;stroke-width:0.377953;paint-order:fill markers stroke" id="path5-7-3" cx="905.5" cy="121.55956" r="41.5" /></g></svg>
